<svg width="521" height="202" viewBox="0 0 521 202" fill="none" xmlns="http://www.w3.org/2000/svg">
<rect width="521" height="202" fill="#151719"/>
<path d="M422.8 56.16V43.2H436.48V56.16H422.8ZM423.52 144V72H435.76V144H423.52Z" fill="url(#paint0_linear)"/>
<path d="M422.8 56.16V43.2H436.48V56.16H422.8ZM423.52 144V72H435.76V144H423.52Z" fill="url(#paint1_linear)"/>
<path d="M422.8 56.16V43.2H436.48V56.16H422.8ZM423.52 144V72H435.76V144H423.52Z" fill="url(#paint2_linear)" fill-opacity="0.5"/>
<path d="M422.8 56.16V43.2H436.48V56.16H422.8ZM423.52 144V72H435.76V144H423.52Z" fill="url(#paint3_linear)"/>
<path d="M135.56 147C127.112 147 120.92 145.224 116.984 141.672C113.048 138.024 111.08 132.12 111.08 123.96V98.04C111.08 89.784 112.856 83.88 116.408 80.328C119.96 76.776 125.864 75 134.12 75H138.008C144.824 75 149.96 76.92 153.416 80.76C156.968 84.504 158.744 90.024 158.744 97.32V116.04H123.32V126.84C123.32 129.816 124.232 132.12 126.056 133.752C127.88 135.384 130.568 136.2 134.12 136.2H154.136V147H135.56ZM146.792 105.24V94.44C146.792 91.944 145.976 89.88 144.344 88.248C142.712 86.616 140.648 85.8 138.152 85.8H132.68C129.224 85.8 126.776 86.616 125.336 88.248C123.992 89.784 123.32 92.088 123.32 95.16V105.24H146.792Z" fill="#6163FF"/>
<path d="M135.56 147C127.112 147 120.92 145.224 116.984 141.672C113.048 138.024 111.08 132.12 111.08 123.96V98.04C111.08 89.784 112.856 83.88 116.408 80.328C119.96 76.776 125.864 75 134.12 75H138.008C144.824 75 149.96 76.92 153.416 80.76C156.968 84.504 158.744 90.024 158.744 97.32V116.04H123.32V126.84C123.32 129.816 124.232 132.12 126.056 133.752C127.88 135.384 130.568 136.2 134.12 136.2H154.136V147H135.56ZM146.792 105.24V94.44C146.792 91.944 145.976 89.88 144.344 88.248C142.712 86.616 140.648 85.8 138.152 85.8H132.68C129.224 85.8 126.776 86.616 125.336 88.248C123.992 89.784 123.32 92.088 123.32 95.16V105.24H146.792Z" fill="url(#paint4_linear)"/>
<path d="M135.56 147C127.112 147 120.92 145.224 116.984 141.672C113.048 138.024 111.08 132.12 111.08 123.96V98.04C111.08 89.784 112.856 83.88 116.408 80.328C119.96 76.776 125.864 75 134.12 75H138.008C144.824 75 149.96 76.92 153.416 80.76C156.968 84.504 158.744 90.024 158.744 97.32V116.04H123.32V126.84C123.32 129.816 124.232 132.12 126.056 133.752C127.88 135.384 130.568 136.2 134.12 136.2H154.136V147H135.56ZM146.792 105.24V94.44C146.792 91.944 145.976 89.88 144.344 88.248C142.712 86.616 140.648 85.8 138.152 85.8H132.68C129.224 85.8 126.776 86.616 125.336 88.248C123.992 89.784 123.32 92.088 123.32 95.16V105.24H146.792Z" fill="url(#paint5_linear)"/>
<path d="M135.56 147C127.112 147 120.92 145.224 116.984 141.672C113.048 138.024 111.08 132.12 111.08 123.96V98.04C111.08 89.784 112.856 83.88 116.408 80.328C119.96 76.776 125.864 75 134.12 75H138.008C144.824 75 149.96 76.92 153.416 80.76C156.968 84.504 158.744 90.024 158.744 97.32V116.04H123.32V126.84C123.32 129.816 124.232 132.12 126.056 133.752C127.88 135.384 130.568 136.2 134.12 136.2H154.136V147H135.56ZM146.792 105.24V94.44C146.792 91.944 145.976 89.88 144.344 88.248C142.712 86.616 140.648 85.8 138.152 85.8H132.68C129.224 85.8 126.776 86.616 125.336 88.248C123.992 89.784 123.32 92.088 123.32 95.16V105.24H146.792Z" fill="url(#paint6_linear)" fill-opacity="0.5"/>
<path d="M135.56 147C127.112 147 120.92 145.224 116.984 141.672C113.048 138.024 111.08 132.12 111.08 123.96V98.04C111.08 89.784 112.856 83.88 116.408 80.328C119.96 76.776 125.864 75 134.12 75H138.008C144.824 75 149.96 76.92 153.416 80.76C156.968 84.504 158.744 90.024 158.744 97.32V116.04H123.32V126.84C123.32 129.816 124.232 132.12 126.056 133.752C127.88 135.384 130.568 136.2 134.12 136.2H154.136V147H135.56ZM146.792 105.24V94.44C146.792 91.944 145.976 89.88 144.344 88.248C142.712 86.616 140.648 85.8 138.152 85.8H132.68C129.224 85.8 126.776 86.616 125.336 88.248C123.992 89.784 123.32 92.088 123.32 95.16V105.24H146.792Z" fill="url(#paint7_linear)"/>
<path d="M162.52 72H174.04V75.456C177.016 73.152 180.856 72 185.56 72H189.304C197.08 72 202.84 73.824 206.584 77.472C210.424 81.12 212.344 86.976 212.344 95.04V144H200.104V92.16C200.104 89.28 199.24 87.024 197.512 85.392C195.88 83.664 193.624 82.8 190.744 82.8H184.12C180.952 82.8 178.6 83.664 177.064 85.392C175.528 87.024 174.76 88.8 174.76 90.72V144H162.52V72Z" fill="url(#paint8_linear)"/>
<path d="M162.52 72H174.04V75.456C177.016 73.152 180.856 72 185.56 72H189.304C197.08 72 202.84 73.824 206.584 77.472C210.424 81.12 212.344 86.976 212.344 95.04V144H200.104V92.16C200.104 89.28 199.24 87.024 197.512 85.392C195.88 83.664 193.624 82.8 190.744 82.8H184.12C180.952 82.8 178.6 83.664 177.064 85.392C175.528 87.024 174.76 88.8 174.76 90.72V144H162.52V72Z" fill="url(#paint9_linear)"/>
<path d="M162.52 72H174.04V75.456C177.016 73.152 180.856 72 185.56 72H189.304C197.08 72 202.84 73.824 206.584 77.472C210.424 81.12 212.344 86.976 212.344 95.04V144H200.104V92.16C200.104 89.28 199.24 87.024 197.512 85.392C195.88 83.664 193.624 82.8 190.744 82.8H184.12C180.952 82.8 178.6 83.664 177.064 85.392C175.528 87.024 174.76 88.8 174.76 90.72V144H162.52V72Z" fill="url(#paint10_linear)" fill-opacity="0.5"/>
<path d="M162.52 72H174.04V75.456C177.016 73.152 180.856 72 185.56 72H189.304C197.08 72 202.84 73.824 206.584 77.472C210.424 81.12 212.344 86.976 212.344 95.04V144H200.104V92.16C200.104 89.28 199.24 87.024 197.512 85.392C195.88 83.664 193.624 82.8 190.744 82.8H184.12C180.952 82.8 178.6 83.664 177.064 85.392C175.528 87.024 174.76 88.8 174.76 90.72V144H162.52V72Z" fill="url(#paint11_linear)"/>
<path d="M241.36 144C236.464 144 232.72 142.416 230.128 139.248C227.536 136.08 226.24 131.904 226.24 126.72V82.8H216.88V72H226.24V54.72H238.48V72H255.184V82.8H238.48V127.44C238.48 129.552 239.008 131.04 240.064 131.904C241.12 132.768 242.752 133.2 244.96 133.2H255.184V144H241.36Z" fill="url(#paint12_linear)"/>
<path d="M241.36 144C236.464 144 232.72 142.416 230.128 139.248C227.536 136.08 226.24 131.904 226.24 126.72V82.8H216.88V72H226.24V54.72H238.48V72H255.184V82.8H238.48V127.44C238.48 129.552 239.008 131.04 240.064 131.904C241.12 132.768 242.752 133.2 244.96 133.2H255.184V144H241.36Z" fill="url(#paint13_linear)"/>
<path d="M241.36 144C236.464 144 232.72 142.416 230.128 139.248C227.536 136.08 226.24 131.904 226.24 126.72V82.8H216.88V72H226.24V54.72H238.48V72H255.184V82.8H238.48V127.44C238.48 129.552 239.008 131.04 240.064 131.904C241.12 132.768 242.752 133.2 244.96 133.2H255.184V144H241.36Z" fill="url(#paint14_linear)" fill-opacity="0.5"/>
<path d="M241.36 144C236.464 144 232.72 142.416 230.128 139.248C227.536 136.08 226.24 131.904 226.24 126.72V82.8H216.88V72H226.24V54.72H238.48V72H255.184V82.8H238.48V127.44C238.48 129.552 239.008 131.04 240.064 131.904C241.12 132.768 242.752 133.2 244.96 133.2H255.184V144H241.36Z" fill="url(#paint15_linear)"/>
<path d="M310.52 72H322.04V75.888C325.208 73.296 329.048 72 333.56 72H344.072V83.52H332.12C328.952 83.52 326.6 84.576 325.064 86.688C323.528 88.8 322.76 90.864 322.76 92.88V144H310.52V72Z" fill="url(#paint16_linear)"/>
<path d="M310.52 72H322.04V75.888C325.208 73.296 329.048 72 333.56 72H344.072V83.52H332.12C328.952 83.52 326.6 84.576 325.064 86.688C323.528 88.8 322.76 90.864 322.76 92.88V144H310.52V72Z" fill="url(#paint17_linear)"/>
<path d="M310.52 72H322.04V75.888C325.208 73.296 329.048 72 333.56 72H344.072V83.52H332.12C328.952 83.52 326.6 84.576 325.064 86.688C323.528 88.8 322.76 90.864 322.76 92.88V144H310.52V72Z" fill="url(#paint18_linear)" fill-opacity="0.5"/>
<path d="M310.52 72H322.04V75.888C325.208 73.296 329.048 72 333.56 72H344.072V83.52H332.12C328.952 83.52 326.6 84.576 325.064 86.688C323.528 88.8 322.76 90.864 322.76 92.88V144H310.52V72Z" fill="url(#paint19_linear)"/>
<path d="M282.56 144C274.112 144 267.92 142.224 263.984 138.672C260.048 135.024 258.08 129.12 258.08 120.96V95.04C258.08 86.784 259.856 80.88 263.408 77.328C266.96 73.776 272.864 72 281.12 72H285.008C291.824 72 296.96 73.92 300.416 77.76C303.968 81.504 305.744 87.024 305.744 94.32V113.04H270.32V123.84C270.32 126.816 271.232 129.12 273.056 130.752C274.88 132.384 277.568 133.2 281.12 133.2H301.136V144H282.56ZM293.792 102.24V91.44C293.792 88.944 292.976 86.88 291.344 85.248C289.712 83.616 287.648 82.8 285.152 82.8H279.68C276.224 82.8 273.776 83.616 272.336 85.248C270.992 86.784 270.32 89.088 270.32 92.16V102.24H293.792Z" fill="url(#paint20_linear)"/>
<path d="M282.56 144C274.112 144 267.92 142.224 263.984 138.672C260.048 135.024 258.08 129.12 258.08 120.96V95.04C258.08 86.784 259.856 80.88 263.408 77.328C266.96 73.776 272.864 72 281.12 72H285.008C291.824 72 296.96 73.92 300.416 77.76C303.968 81.504 305.744 87.024 305.744 94.32V113.04H270.32V123.84C270.32 126.816 271.232 129.12 273.056 130.752C274.88 132.384 277.568 133.2 281.12 133.2H301.136V144H282.56ZM293.792 102.24V91.44C293.792 88.944 292.976 86.88 291.344 85.248C289.712 83.616 287.648 82.8 285.152 82.8H279.68C276.224 82.8 273.776 83.616 272.336 85.248C270.992 86.784 270.32 89.088 270.32 92.16V102.24H293.792Z" fill="url(#paint21_linear)"/>
<path d="M282.56 144C274.112 144 267.92 142.224 263.984 138.672C260.048 135.024 258.08 129.12 258.08 120.96V95.04C258.08 86.784 259.856 80.88 263.408 77.328C266.96 73.776 272.864 72 281.12 72H285.008C291.824 72 296.96 73.92 300.416 77.76C303.968 81.504 305.744 87.024 305.744 94.32V113.04H270.32V123.84C270.32 126.816 271.232 129.12 273.056 130.752C274.88 132.384 277.568 133.2 281.12 133.2H301.136V144H282.56ZM293.792 102.24V91.44C293.792 88.944 292.976 86.88 291.344 85.248C289.712 83.616 287.648 82.8 285.152 82.8H279.68C276.224 82.8 273.776 83.616 272.336 85.248C270.992 86.784 270.32 89.088 270.32 92.16V102.24H293.792Z" fill="url(#paint22_linear)" fill-opacity="0.5"/>
<path d="M282.56 144C274.112 144 267.92 142.224 263.984 138.672C260.048 135.024 258.08 129.12 258.08 120.96V95.04C258.08 86.784 259.856 80.88 263.408 77.328C266.96 73.776 272.864 72 281.12 72H285.008C291.824 72 296.96 73.92 300.416 77.76C303.968 81.504 305.744 87.024 305.744 94.32V113.04H270.32V123.84C270.32 126.816 271.232 129.12 273.056 130.752C274.88 132.384 277.568 133.2 281.12 133.2H301.136V144H282.56ZM293.792 102.24V91.44C293.792 88.944 292.976 86.88 291.344 85.248C289.712 83.616 287.648 82.8 285.152 82.8H279.68C276.224 82.8 273.776 83.616 272.336 85.248C270.992 86.784 270.32 89.088 270.32 92.16V102.24H293.792Z" fill="url(#paint23_linear)"/>
<path d="M339.52 72H351.04V75.456C354.016 73.152 357.856 72 362.56 72H364.864C373.312 72 379.504 73.824 383.44 77.472C387.376 81.024 389.344 86.88 389.344 95.04V120.96C389.344 129.024 387.328 134.88 383.296 138.528C379.36 142.176 373.216 144 364.864 144H351.76V168.48H339.52V72ZM361.12 82.8C357.952 82.8 355.6 83.664 354.064 85.392C352.528 87.024 351.76 88.8 351.76 90.72V133.2H366.304C369.856 133.2 372.544 132.384 374.368 130.752C376.192 129.12 377.104 126.816 377.104 123.84V92.16C377.104 89.184 376.192 86.88 374.368 85.248C372.544 83.616 369.856 82.8 366.304 82.8H361.12Z" fill="url(#paint24_linear)"/>
<path d="M339.52 72H351.04V75.456C354.016 73.152 357.856 72 362.56 72H364.864C373.312 72 379.504 73.824 383.44 77.472C387.376 81.024 389.344 86.88 389.344 95.04V120.96C389.344 129.024 387.328 134.88 383.296 138.528C379.36 142.176 373.216 144 364.864 144H351.76V168.48H339.52V72ZM361.12 82.8C357.952 82.8 355.6 83.664 354.064 85.392C352.528 87.024 351.76 88.8 351.76 90.72V133.2H366.304C369.856 133.2 372.544 132.384 374.368 130.752C376.192 129.12 377.104 126.816 377.104 123.84V92.16C377.104 89.184 376.192 86.88 374.368 85.248C372.544 83.616 369.856 82.8 366.304 82.8H361.12Z" fill="url(#paint25_linear)"/>
<path d="M339.52 72H351.04V75.456C354.016 73.152 357.856 72 362.56 72H364.864C373.312 72 379.504 73.824 383.44 77.472C387.376 81.024 389.344 86.88 389.344 95.04V120.96C389.344 129.024 387.328 134.88 383.296 138.528C379.36 142.176 373.216 144 364.864 144H351.76V168.48H339.52V72ZM361.12 82.8C357.952 82.8 355.6 83.664 354.064 85.392C352.528 87.024 351.76 88.8 351.76 90.72V133.2H366.304C369.856 133.2 372.544 132.384 374.368 130.752C376.192 129.12 377.104 126.816 377.104 123.84V92.16C377.104 89.184 376.192 86.88 374.368 85.248C372.544 83.616 369.856 82.8 366.304 82.8H361.12Z" fill="url(#paint26_linear)" fill-opacity="0.5"/>
<path d="M339.52 72H351.04V75.456C354.016 73.152 357.856 72 362.56 72H364.864C373.312 72 379.504 73.824 383.44 77.472C387.376 81.024 389.344 86.88 389.344 95.04V120.96C389.344 129.024 387.328 134.88 383.296 138.528C379.36 142.176 373.216 144 364.864 144H351.76V168.48H339.52V72ZM361.12 82.8C357.952 82.8 355.6 83.664 354.064 85.392C352.528 87.024 351.76 88.8 351.76 90.72V133.2H366.304C369.856 133.2 372.544 132.384 374.368 130.752C376.192 129.12 377.104 126.816 377.104 123.84V92.16C377.104 89.184 376.192 86.88 374.368 85.248C372.544 83.616 369.856 82.8 366.304 82.8H361.12Z" fill="url(#paint27_linear)"/>
<path d="M387.52 72H399.04V75.888C402.208 73.296 406.048 72 410.56 72H421.072V83.52H409.12C405.952 83.52 403.6 84.576 402.064 86.688C400.528 88.8 399.76 90.864 399.76 92.88V144H387.52V72Z" fill="url(#paint28_linear)"/>
<path d="M387.52 72H399.04V75.888C402.208 73.296 406.048 72 410.56 72H421.072V83.52H409.12C405.952 83.52 403.6 84.576 402.064 86.688C400.528 88.8 399.76 90.864 399.76 92.88V144H387.52V72Z" fill="url(#paint29_linear)"/>
<path d="M387.52 72H399.04V75.888C402.208 73.296 406.048 72 410.56 72H421.072V83.52H409.12C405.952 83.52 403.6 84.576 402.064 86.688C400.528 88.8 399.76 90.864 399.76 92.88V144H387.52V72Z" fill="url(#paint30_linear)" fill-opacity="0.5"/>
<path d="M387.52 72H399.04V75.888C402.208 73.296 406.048 72 410.56 72H421.072V83.52H409.12C405.952 83.52 403.6 84.576 402.064 86.688C400.528 88.8 399.76 90.864 399.76 92.88V144H387.52V72Z" fill="url(#paint31_linear)"/>
<path d="M473.536 126C473.536 132.048 471.664 136.56 467.92 139.536C464.272 142.512 458.944 144 451.936 144H433.36V133.2H453.376C455.968 133.2 457.936 132.672 459.28 131.616C460.624 130.464 461.296 128.832 461.296 126.72V119.088C461.296 114.768 459.232 112.608 455.104 112.608H452.656C445.936 112.608 440.896 111.168 437.536 108.288C434.272 105.312 432.64 100.656 432.64 94.32V90.144C432.64 83.712 434.464 79.104 438.112 76.32C441.76 73.44 447.136 72 454.24 72H470.656V82.8H452.8C450.4 82.8 448.48 83.376 447.04 84.528C445.6 85.584 444.88 87.168 444.88 89.28V94.464C444.88 96.672 445.504 98.304 446.752 99.36C448.096 100.416 449.776 100.944 451.792 100.944H453.808C460.24 100.944 465.136 102.528 468.496 105.696C471.856 108.768 473.536 113.376 473.536 119.52V126Z" fill="url(#paint32_linear)"/>
<path d="M473.536 126C473.536 132.048 471.664 136.56 467.92 139.536C464.272 142.512 458.944 144 451.936 144H433.36V133.2H453.376C455.968 133.2 457.936 132.672 459.28 131.616C460.624 130.464 461.296 128.832 461.296 126.72V119.088C461.296 114.768 459.232 112.608 455.104 112.608H452.656C445.936 112.608 440.896 111.168 437.536 108.288C434.272 105.312 432.64 100.656 432.64 94.32V90.144C432.64 83.712 434.464 79.104 438.112 76.32C441.76 73.44 447.136 72 454.24 72H470.656V82.8H452.8C450.4 82.8 448.48 83.376 447.04 84.528C445.6 85.584 444.88 87.168 444.88 89.28V94.464C444.88 96.672 445.504 98.304 446.752 99.36C448.096 100.416 449.776 100.944 451.792 100.944H453.808C460.24 100.944 465.136 102.528 468.496 105.696C471.856 108.768 473.536 113.376 473.536 119.52V126Z" fill="url(#paint33_linear)"/>
<path d="M473.536 126C473.536 132.048 471.664 136.56 467.92 139.536C464.272 142.512 458.944 144 451.936 144H433.36V133.2H453.376C455.968 133.2 457.936 132.672 459.28 131.616C460.624 130.464 461.296 128.832 461.296 126.72V119.088C461.296 114.768 459.232 112.608 455.104 112.608H452.656C445.936 112.608 440.896 111.168 437.536 108.288C434.272 105.312 432.64 100.656 432.64 94.32V90.144C432.64 83.712 434.464 79.104 438.112 76.32C441.76 73.44 447.136 72 454.24 72H470.656V82.8H452.8C450.4 82.8 448.48 83.376 447.04 84.528C445.6 85.584 444.88 87.168 444.88 89.28V94.464C444.88 96.672 445.504 98.304 446.752 99.36C448.096 100.416 449.776 100.944 451.792 100.944H453.808C460.24 100.944 465.136 102.528 468.496 105.696C471.856 108.768 473.536 113.376 473.536 119.52V126Z" fill="url(#paint34_linear)" fill-opacity="0.5"/>
<path d="M473.536 126C473.536 132.048 471.664 136.56 467.92 139.536C464.272 142.512 458.944 144 451.936 144H433.36V133.2H453.376C455.968 133.2 457.936 132.672 459.28 131.616C460.624 130.464 461.296 128.832 461.296 126.72V119.088C461.296 114.768 459.232 112.608 455.104 112.608H452.656C445.936 112.608 440.896 111.168 437.536 108.288C434.272 105.312 432.64 100.656 432.64 94.32V90.144C432.64 83.712 434.464 79.104 438.112 76.32C441.76 73.44 447.136 72 454.24 72H470.656V82.8H452.8C450.4 82.8 448.48 83.376 447.04 84.528C445.6 85.584 444.88 87.168 444.88 89.28V94.464C444.88 96.672 445.504 98.304 446.752 99.36C448.096 100.416 449.776 100.944 451.792 100.944H453.808C460.24 100.944 465.136 102.528 468.496 105.696C471.856 108.768 473.536 113.376 473.536 119.52V126Z" fill="url(#paint35_linear)"/>
<path d="M497.56 144C489.112 144 482.92 142.224 478.984 138.672C475.048 135.024 473.08 129.12 473.08 120.96V95.04C473.08 86.784 474.856 80.88 478.408 77.328C481.96 73.776 487.864 72 496.12 72H500.008C506.824 72 511.96 73.92 515.416 77.76C518.968 81.504 520.744 87.024 520.744 94.32V113.04H485.32V123.84C485.32 126.816 486.232 129.12 488.056 130.752C489.88 132.384 492.568 133.2 496.12 133.2H516.136V144H497.56ZM508.792 102.24V91.44C508.792 88.944 507.976 86.88 506.344 85.248C504.712 83.616 502.648 82.8 500.152 82.8H494.68C491.224 82.8 488.776 83.616 487.336 85.248C485.992 86.784 485.32 89.088 485.32 92.16V102.24H508.792Z" fill="url(#paint36_linear)"/>
<path d="M497.56 144C489.112 144 482.92 142.224 478.984 138.672C475.048 135.024 473.08 129.12 473.08 120.96V95.04C473.08 86.784 474.856 80.88 478.408 77.328C481.96 73.776 487.864 72 496.12 72H500.008C506.824 72 511.96 73.92 515.416 77.76C518.968 81.504 520.744 87.024 520.744 94.32V113.04H485.32V123.84C485.32 126.816 486.232 129.12 488.056 130.752C489.88 132.384 492.568 133.2 496.12 133.2H516.136V144H497.56ZM508.792 102.24V91.44C508.792 88.944 507.976 86.88 506.344 85.248C504.712 83.616 502.648 82.8 500.152 82.8H494.68C491.224 82.8 488.776 83.616 487.336 85.248C485.992 86.784 485.32 89.088 485.32 92.16V102.24H508.792Z" fill="url(#paint37_linear)"/>
<path d="M497.56 144C489.112 144 482.92 142.224 478.984 138.672C475.048 135.024 473.08 129.12 473.08 120.96V95.04C473.08 86.784 474.856 80.88 478.408 77.328C481.96 73.776 487.864 72 496.12 72H500.008C506.824 72 511.96 73.92 515.416 77.76C518.968 81.504 520.744 87.024 520.744 94.32V113.04H485.32V123.84C485.32 126.816 486.232 129.12 488.056 130.752C489.88 132.384 492.568 133.2 496.12 133.2H516.136V144H497.56ZM508.792 102.24V91.44C508.792 88.944 507.976 86.88 506.344 85.248C504.712 83.616 502.648 82.8 500.152 82.8H494.68C491.224 82.8 488.776 83.616 487.336 85.248C485.992 86.784 485.32 89.088 485.32 92.16V102.24H508.792Z" fill="url(#paint38_linear)" fill-opacity="0.5"/>
<path d="M497.56 144C489.112 144 482.92 142.224 478.984 138.672C475.048 135.024 473.08 129.12 473.08 120.96V95.04C473.08 86.784 474.856 80.88 478.408 77.328C481.96 73.776 487.864 72 496.12 72H500.008C506.824 72 511.96 73.92 515.416 77.76C518.968 81.504 520.744 87.024 520.744 94.32V113.04H485.32V123.84C485.32 126.816 486.232 129.12 488.056 130.752C489.88 132.384 492.568 133.2 496.12 133.2H516.136V144H497.56ZM508.792 102.24V91.44C508.792 88.944 507.976 86.88 506.344 85.248C504.712 83.616 502.648 82.8 500.152 82.8H494.68C491.224 82.8 488.776 83.616 487.336 85.248C485.992 86.784 485.32 89.088 485.32 92.16V102.24H508.792Z" fill="url(#paint39_linear)"/>
<path d="M94.12 179C77.224 179 64.84 175.448 56.968 168.344C49.096 161.048 45.16 149.24 45.16 132.92V81.08C45.16 64.952 49.096 53.24 56.968 45.944C65.032 38.648 77.416 35 94.12 35H125.512V56.6H91.24C84.136 56.6 78.76 58.232 75.112 61.496C71.464 64.76 69.64 69.368 69.64 75.32V138.68C69.64 144.632 71.464 149.24 75.112 152.504C78.76 155.768 84.136 157.4 91.24 157.4H125.512V179H94.12Z" fill="#6163FF"/>
<path d="M94.12 179C77.224 179 64.84 175.448 56.968 168.344C49.096 161.048 45.16 149.24 45.16 132.92V81.08C45.16 64.952 49.096 53.24 56.968 45.944C65.032 38.648 77.416 35 94.12 35H125.512V56.6H91.24C84.136 56.6 78.76 58.232 75.112 61.496C71.464 64.76 69.64 69.368 69.64 75.32V138.68C69.64 144.632 71.464 149.24 75.112 152.504C78.76 155.768 84.136 157.4 91.24 157.4H125.512V179H94.12Z" fill="url(#paint40_linear)"/>
<path d="M94.12 179C77.224 179 64.84 175.448 56.968 168.344C49.096 161.048 45.16 149.24 45.16 132.92V81.08C45.16 64.952 49.096 53.24 56.968 45.944C65.032 38.648 77.416 35 94.12 35H125.512V56.6H91.24C84.136 56.6 78.76 58.232 75.112 61.496C71.464 64.76 69.64 69.368 69.64 75.32V138.68C69.64 144.632 71.464 149.24 75.112 152.504C78.76 155.768 84.136 157.4 91.24 157.4H125.512V179H94.12Z" fill="url(#paint41_linear)"/>
<path d="M94.12 179C77.224 179 64.84 175.448 56.968 168.344C49.096 161.048 45.16 149.24 45.16 132.92V81.08C45.16 64.952 49.096 53.24 56.968 45.944C65.032 38.648 77.416 35 94.12 35H125.512V56.6H91.24C84.136 56.6 78.76 58.232 75.112 61.496C71.464 64.76 69.64 69.368 69.64 75.32V138.68C69.64 144.632 71.464 149.24 75.112 152.504C78.76 155.768 84.136 157.4 91.24 157.4H125.512V179H94.12Z" fill="url(#paint42_linear)" fill-opacity="0.5"/>
<path d="M94.12 179C77.224 179 64.84 175.448 56.968 168.344C49.096 161.048 45.16 149.24 45.16 132.92V81.08C45.16 64.952 49.096 53.24 56.968 45.944C65.032 38.648 77.416 35 94.12 35H125.512V56.6H91.24C84.136 56.6 78.76 58.232 75.112 61.496C71.464 64.76 69.64 69.368 69.64 75.32V138.68C69.64 144.632 71.464 149.24 75.112 152.504C78.76 155.768 84.136 157.4 91.24 157.4H125.512V179H94.12Z" fill="url(#paint43_linear)"/>
<path d="M105.888 156.496C105.888 173.008 102.048 184.72 94.368 191.632C86.88 198.544 74.4 202 56.928 202H0.48V0.399986H53.472C70.752 0.399986 83.808 3.95199 92.64 11.056C101.472 17.968 105.888 29.392 105.888 45.328V156.496ZM80.832 42.736C80.832 36.4 78.912 31.408 75.072 27.76C71.232 23.92 66.144 22 59.808 22H25.536V180.4H59.52C66.816 180.4 72.192 178.768 75.648 175.504C79.104 172.048 80.832 166.672 80.832 159.376V42.736Z" fill="url(#paint44_linear)"/>
<path d="M105.888 156.496C105.888 173.008 102.048 184.72 94.368 191.632C86.88 198.544 74.4 202 56.928 202H0.48V0.399986H53.472C70.752 0.399986 83.808 3.95199 92.64 11.056C101.472 17.968 105.888 29.392 105.888 45.328V156.496ZM80.832 42.736C80.832 36.4 78.912 31.408 75.072 27.76C71.232 23.92 66.144 22 59.808 22H25.536V180.4H59.52C66.816 180.4 72.192 178.768 75.648 175.504C79.104 172.048 80.832 166.672 80.832 159.376V42.736Z" fill="url(#paint45_linear)"/>
<path d="M105.888 156.496C105.888 173.008 102.048 184.72 94.368 191.632C86.88 198.544 74.4 202 56.928 202H0.48V0.399986H53.472C70.752 0.399986 83.808 3.95199 92.64 11.056C101.472 17.968 105.888 29.392 105.888 45.328V156.496ZM80.832 42.736C80.832 36.4 78.912 31.408 75.072 27.76C71.232 23.92 66.144 22 59.808 22H25.536V180.4H59.52C66.816 180.4 72.192 178.768 75.648 175.504C79.104 172.048 80.832 166.672 80.832 159.376V42.736Z" fill="url(#paint46_linear)" fill-opacity="0.5"/>
<path d="M105.888 156.496C105.888 173.008 102.048 184.72 94.368 191.632C86.88 198.544 74.4 202 56.928 202H0.48V0.399986H53.472C70.752 0.399986 83.808 3.95199 92.64 11.056C101.472 17.968 105.888 29.392 105.888 45.328V156.496ZM80.832 42.736C80.832 36.4 78.912 31.408 75.072 27.76C71.232 23.92 66.144 22 59.808 22H25.536V180.4H59.52C66.816 180.4 72.192 178.768 75.648 175.504C79.104 172.048 80.832 166.672 80.832 159.376V42.736Z" fill="url(#paint47_linear)"/>
<defs>
<linearGradient id="paint0_linear" x1="430" y1="17" x2="430" y2="179" gradientUnits="userSpaceOnUse">
<stop stop-color="#0F1010"/>
<stop offset="1" stop-color="white" stop-opacity="0"/>
</linearGradient>
<linearGradient id="paint1_linear" x1="430" y1="17" x2="430" y2="179" gradientUnits="userSpaceOnUse">
<stop stop-color="#6163FF"/>
<stop offset="1" stop-color="white" stop-opacity="0"/>
</linearGradient>
<linearGradient id="paint2_linear" x1="430" y1="17" x2="430" y2="179" gradientUnits="userSpaceOnUse">
<stop stop-color="#24E5AF"/>
<stop offset="1" stop-color="white" stop-opacity="0"/>
</linearGradient>
<linearGradient id="paint3_linear" x1="430" y1="17" x2="430" y2="179" gradientUnits="userSpaceOnUse">
<stop stop-color="#6163FF"/>
<stop offset="1" stop-color="white" stop-opacity="0"/>
</linearGradient>
<linearGradient id="paint4_linear" x1="136" y1="-142" x2="136" y2="58" gradientUnits="userSpaceOnUse">
<stop stop-color="#151719"/>
<stop offset="1" stop-color="white" stop-opacity="0"/>
</linearGradient>
<linearGradient id="paint5_linear" x1="136" y1="-142" x2="136" y2="58" gradientUnits="userSpaceOnUse">
<stop stop-color="#6163FF"/>
<stop offset="1" stop-color="white" stop-opacity="0"/>
</linearGradient>
<linearGradient id="paint6_linear" x1="136" y1="-142" x2="136" y2="58" gradientUnits="userSpaceOnUse">
<stop stop-color="#24E5AF"/>
<stop offset="1" stop-color="white" stop-opacity="0"/>
</linearGradient>
<linearGradient id="paint7_linear" x1="136" y1="-142" x2="136" y2="58" gradientUnits="userSpaceOnUse">
<stop stop-color="#6163FF"/>
<stop offset="1" stop-color="white" stop-opacity="0"/>
</linearGradient>
<linearGradient id="paint8_linear" x1="187.5" y1="17" x2="187.5" y2="179" gradientUnits="userSpaceOnUse">
<stop stop-color="#0F1010"/>
<stop offset="1" stop-color="white" stop-opacity="0"/>
</linearGradient>
<linearGradient id="paint9_linear" x1="187.5" y1="17" x2="187.5" y2="179" gradientUnits="userSpaceOnUse">
<stop stop-color="#6163FF"/>
<stop offset="1" stop-color="white" stop-opacity="0"/>
</linearGradient>
<linearGradient id="paint10_linear" x1="187.5" y1="17" x2="187.5" y2="179" gradientUnits="userSpaceOnUse">
<stop stop-color="#24E5AF"/>
<stop offset="1" stop-color="white" stop-opacity="0"/>
</linearGradient>
<linearGradient id="paint11_linear" x1="187.5" y1="17" x2="187.5" y2="179" gradientUnits="userSpaceOnUse">
<stop stop-color="#6163FF"/>
<stop offset="1" stop-color="white" stop-opacity="0"/>
</linearGradient>
<linearGradient id="paint12_linear" x1="236.5" y1="17" x2="236.5" y2="179" gradientUnits="userSpaceOnUse">
<stop stop-color="#0F1010"/>
<stop offset="1" stop-color="white" stop-opacity="0"/>
</linearGradient>
<linearGradient id="paint13_linear" x1="236.5" y1="17" x2="236.5" y2="179" gradientUnits="userSpaceOnUse">
<stop stop-color="#6163FF"/>
<stop offset="1" stop-color="white" stop-opacity="0"/>
</linearGradient>
<linearGradient id="paint14_linear" x1="236.5" y1="17" x2="236.5" y2="179" gradientUnits="userSpaceOnUse">
<stop stop-color="#24E5AF"/>
<stop offset="1" stop-color="white" stop-opacity="0"/>
</linearGradient>
<linearGradient id="paint15_linear" x1="236.5" y1="17" x2="236.5" y2="179" gradientUnits="userSpaceOnUse">
<stop stop-color="#6163FF"/>
<stop offset="1" stop-color="white" stop-opacity="0"/>
</linearGradient>
<linearGradient id="paint16_linear" x1="323" y1="17" x2="323" y2="179" gradientUnits="userSpaceOnUse">
<stop stop-color="#0F1010"/>
<stop offset="1" stop-color="white" stop-opacity="0"/>
</linearGradient>
<linearGradient id="paint17_linear" x1="323" y1="17" x2="323" y2="179" gradientUnits="userSpaceOnUse">
<stop stop-color="#6163FF"/>
<stop offset="1" stop-color="white" stop-opacity="0"/>
</linearGradient>
<linearGradient id="paint18_linear" x1="323" y1="17" x2="323" y2="179" gradientUnits="userSpaceOnUse">
<stop stop-color="#24E5AF"/>
<stop offset="1" stop-color="white" stop-opacity="0"/>
</linearGradient>
<linearGradient id="paint19_linear" x1="323" y1="17" x2="323" y2="179" gradientUnits="userSpaceOnUse">
<stop stop-color="#6163FF"/>
<stop offset="1" stop-color="white" stop-opacity="0"/>
</linearGradient>
<linearGradient id="paint20_linear" x1="282" y1="17" x2="282" y2="179" gradientUnits="userSpaceOnUse">
<stop stop-color="#0F1010"/>
<stop offset="1" stop-color="white" stop-opacity="0"/>
</linearGradient>
<linearGradient id="paint21_linear" x1="282" y1="17" x2="282" y2="179" gradientUnits="userSpaceOnUse">
<stop stop-color="#6163FF"/>
<stop offset="1" stop-color="white" stop-opacity="0"/>
</linearGradient>
<linearGradient id="paint22_linear" x1="282" y1="17" x2="282" y2="179" gradientUnits="userSpaceOnUse">
<stop stop-color="#24E5AF"/>
<stop offset="1" stop-color="white" stop-opacity="0"/>
</linearGradient>
<linearGradient id="paint23_linear" x1="282" y1="17" x2="282" y2="179" gradientUnits="userSpaceOnUse">
<stop stop-color="#6163FF"/>
<stop offset="1" stop-color="white" stop-opacity="0"/>
</linearGradient>
<linearGradient id="paint24_linear" x1="364" y1="17" x2="364" y2="179" gradientUnits="userSpaceOnUse">
<stop stop-color="#0F1010"/>
<stop offset="1" stop-color="white" stop-opacity="0"/>
</linearGradient>
<linearGradient id="paint25_linear" x1="364" y1="17" x2="364" y2="179" gradientUnits="userSpaceOnUse">
<stop stop-color="#6163FF"/>
<stop offset="1" stop-color="white" stop-opacity="0"/>
</linearGradient>
<linearGradient id="paint26_linear" x1="364" y1="17" x2="364" y2="179" gradientUnits="userSpaceOnUse">
<stop stop-color="#24E5AF"/>
<stop offset="1" stop-color="white" stop-opacity="0"/>
</linearGradient>
<linearGradient id="paint27_linear" x1="364" y1="17" x2="364" y2="179" gradientUnits="userSpaceOnUse">
<stop stop-color="#6163FF"/>
<stop offset="1" stop-color="white" stop-opacity="0"/>
</linearGradient>
<linearGradient id="paint28_linear" x1="400" y1="17" x2="400" y2="179" gradientUnits="userSpaceOnUse">
<stop stop-color="#0F1010"/>
<stop offset="1" stop-color="white" stop-opacity="0"/>
</linearGradient>
<linearGradient id="paint29_linear" x1="400" y1="17" x2="400" y2="179" gradientUnits="userSpaceOnUse">
<stop stop-color="#6163FF"/>
<stop offset="1" stop-color="white" stop-opacity="0"/>
</linearGradient>
<linearGradient id="paint30_linear" x1="400" y1="17" x2="400" y2="179" gradientUnits="userSpaceOnUse">
<stop stop-color="#24E5AF"/>
<stop offset="1" stop-color="white" stop-opacity="0"/>
</linearGradient>
<linearGradient id="paint31_linear" x1="400" y1="17" x2="400" y2="179" gradientUnits="userSpaceOnUse">
<stop stop-color="#6163FF"/>
<stop offset="1" stop-color="white" stop-opacity="0"/>
</linearGradient>
<linearGradient id="paint32_linear" x1="453" y1="17" x2="453" y2="179" gradientUnits="userSpaceOnUse">
<stop stop-color="#0F1010"/>
<stop offset="1" stop-color="white" stop-opacity="0"/>
</linearGradient>
<linearGradient id="paint33_linear" x1="453" y1="17" x2="453" y2="179" gradientUnits="userSpaceOnUse">
<stop stop-color="#6163FF"/>
<stop offset="1" stop-color="white" stop-opacity="0"/>
</linearGradient>
<linearGradient id="paint34_linear" x1="453" y1="17" x2="453" y2="179" gradientUnits="userSpaceOnUse">
<stop stop-color="#24E5AF"/>
<stop offset="1" stop-color="white" stop-opacity="0"/>
</linearGradient>
<linearGradient id="paint35_linear" x1="453" y1="17" x2="453" y2="179" gradientUnits="userSpaceOnUse">
<stop stop-color="#6163FF"/>
<stop offset="1" stop-color="white" stop-opacity="0"/>
</linearGradient>
<linearGradient id="paint36_linear" x1="550.5" y1="17" x2="550.5" y2="179" gradientUnits="userSpaceOnUse">
<stop stop-color="#0F1010"/>
<stop offset="1" stop-color="white" stop-opacity="0"/>
</linearGradient>
<linearGradient id="paint37_linear" x1="550.5" y1="17" x2="550.5" y2="179" gradientUnits="userSpaceOnUse">
<stop stop-color="#6163FF"/>
<stop offset="1" stop-color="white" stop-opacity="0"/>
</linearGradient>
<linearGradient id="paint38_linear" x1="550.5" y1="17" x2="550.5" y2="179" gradientUnits="userSpaceOnUse">
<stop stop-color="#24E5AF"/>
<stop offset="1" stop-color="white" stop-opacity="0"/>
</linearGradient>
<linearGradient id="paint39_linear" x1="550.5" y1="17" x2="550.5" y2="179" gradientUnits="userSpaceOnUse">
<stop stop-color="#6163FF"/>
<stop offset="1" stop-color="white" stop-opacity="0"/>
</linearGradient>
<linearGradient id="paint40_linear" x1="74" y1="-76" x2="74" y2="151" gradientUnits="userSpaceOnUse">
<stop stop-color="#151719"/>
<stop offset="1" stop-color="white" stop-opacity="0"/>
</linearGradient>
<linearGradient id="paint41_linear" x1="74" y1="-76" x2="74" y2="151" gradientUnits="userSpaceOnUse">
<stop stop-color="#6163FF"/>
<stop offset="1" stop-color="white" stop-opacity="0"/>
</linearGradient>
<linearGradient id="paint42_linear" x1="74" y1="-76" x2="74" y2="151" gradientUnits="userSpaceOnUse">
<stop stop-color="#24E5AF"/>
<stop offset="1" stop-color="white" stop-opacity="0"/>
</linearGradient>
<linearGradient id="paint43_linear" x1="74" y1="-76" x2="74" y2="151" gradientUnits="userSpaceOnUse">
<stop stop-color="#6163FF"/>
<stop offset="1" stop-color="white" stop-opacity="0"/>
</linearGradient>
<linearGradient id="paint44_linear" x1="64" y1="-53" x2="64" y2="249" gradientUnits="userSpaceOnUse">
<stop stop-color="#151719"/>
<stop offset="1" stop-color="white" stop-opacity="0"/>
</linearGradient>
<linearGradient id="paint45_linear" x1="64" y1="-53" x2="64" y2="249" gradientUnits="userSpaceOnUse">
<stop stop-color="#6163FF"/>
<stop offset="1" stop-color="white" stop-opacity="0"/>
</linearGradient>
<linearGradient id="paint46_linear" x1="64" y1="-53" x2="64" y2="249" gradientUnits="userSpaceOnUse">
<stop stop-color="#24E5AF"/>
<stop offset="1" stop-color="white" stop-opacity="0"/>
</linearGradient>
<linearGradient id="paint47_linear" x1="64" y1="-53" x2="64" y2="249" gradientUnits="userSpaceOnUse">
<stop stop-color="#6163FF"/>
<stop offset="1" stop-color="white" stop-opacity="0"/>
</linearGradient>
</defs>
</svg>
